HIERARCHY
ROOT Hips
{
	OFFSET 0.00000 0.00000 0.00000
	CHANNELS 6 Xposition Yposition Zposition Zrotation Yrotation Xrotation 
	JOINT LHipJoint
	{
		OFFSET 0 0 0
		CHANNELS 3 Zrotation Yrotation Xrotation
		JOINT LeftHip
		{
			OFFSET 1.60223 -1.58443 0.78595
			CHANNELS 3 Zrotation Yrotation Xrotation
			JOINT LeftKnee
			{
				OFFSET 2.21690 -6.09089 0.00000
				CHANNELS 3 Zrotation Yrotation Xrotation
				JOINT LeftAnkle
				{
					OFFSET 2.34805 -6.45122 0.00000
					CHANNELS 3 Zrotation Yrotation Xrotation
					JOINT LeftToe
					{
						OFFSET 0.35452 -0.97402 1.38549
						CHANNELS 3 Zrotation Yrotation Xrotation
						End Site
						{
							OFFSET 0.00000 -0.00000 0.82816
						}
					}
				}
			}
		}
	}
	JOINT RHipJoint
	{
		OFFSET 0 0 0
		CHANNELS 3 Zrotation Yrotation Xrotation
		JOINT RightHip
		{
			OFFSET -1.56524 -1.58443 0.78595
			CHANNELS 3 Zrotation Yrotation Xrotation
			JOINT RightKnee
			{
				OFFSET -2.15558 -5.92241 0.00000
				CHANNELS 3 Zrotation Yrotation Xrotation
				JOINT RightAnkle
				{
					OFFSET -2.35077 -6.45870 0.00000
					CHANNELS 3 Zrotation Yrotation Xrotation
					JOINT RightToe
					{
						OFFSET -0.26910 -0.73935 1.33295
						CHANNELS 3 Zrotation Yrotation Xrotation
						End Site
						{
							OFFSET -0.00000 -0.00000 0.75962
						}
					}
				}
			}
		}
	}
	JOINT lowerback
	{
		OFFSET 0 0 0
		CHANNELS 3 Zrotation Yrotation Xrotation
		JOINT Chest
		{
			OFFSET -0.05489 1.97104 -0.02993
			CHANNELS 3 Zrotation Yrotation Xrotation
			JOINT Chest2
			{
				OFFSET -0.00702 1.94230 0.13626
				CHANNELS 3 Zrotation Yrotation Xrotation
				JOINT lowerneck
				{
					OFFSET 0 0 0
					CHANNELS 3 Zrotation Yrotation Xrotation
					JOINT Neck
					{
						OFFSET -0.07858 1.62869 -0.02510
						CHANNELS 3 Zrotation Yrotation Xrotation
						JOINT Head
						{
							OFFSET 0.13978 1.59213 -0.29859
							CHANNELS 3 Zrotation Yrotation Xrotation
							End Site
							{
								OFFSET 0.05353 1.64420 -0.10000
							}
						}
					}
				}
				JOINT LeftCollar
				{
					OFFSET 0 0 0
					CHANNELS 3 Zrotation Yrotation Xrotation
					JOINT LeftShoulder
					{
						OFFSET 3.48263 1.15278 0.52941
CHANNELS 3 Zrotation Xrotation Yrotation
						JOINT LeftElbow
						{
OFFSET 0 -4.592070 -0.000000
CHANNELS 3 Zrotation Xrotation Yrotation
							JOINT LeftWrist
							{
OFFSET 0 -2.981090 -0.000000
CHANNELS 3 Zrotation Xrotation Yrotation
								JOINT lhand
								{
									OFFSET 0 0 0
CHANNELS 3 Zrotation Xrotation Yrotation
									JOINT LFingers
									{
OFFSET 0 -0.480200 -0.000000
CHANNELS 3 Zrotation Xrotation Yrotation
										End Site
										{
OFFSET 0 -0.387150 -0.000000
										}
									}
								}
								JOINT LThumb
								{
OFFSET 0 0.000000 0.000000
CHANNELS 3 Zrotation Xrotation Yrotation
									End Site
									{
OFFSET 0 -0.393060 0.393060
									}
								}
							}
						}
					}
				}
				JOINT RightCollar
				{
					OFFSET 0 0 0
					CHANNELS 3 Zrotation Yrotation Xrotation
					JOINT RightShoulder
					{
						OFFSET -3.52496 1.12722 0.24548
CHANNELS 3 Zrotation Xrotation Yrotation
						JOINT RightElbow
						{
OFFSET 0 -4.765080 -0.000000
CHANNELS 3 Zrotation Xrotation Yrotation
							JOINT RightWrist
							{
OFFSET 0 -2.789020 -0.000000
CHANNELS 3 Zrotation Xrotation Yrotation
								JOINT rhand
								{
									OFFSET 0 0 0
CHANNELS 3 Zrotation Xrotation Yrotation
									JOINT RFingers
									{
OFFSET 0 -0.721300 -0.000000
CHANNELS 3 Zrotation Xrotation Yrotation
										End Site
										{
OFFSET 0 -0.581530 -0.000000
										}
									}
								}
								JOINT RThumb
								{
OFFSET 0 0.000000 0.000000
CHANNELS 3 Zrotation Xrotation Yrotation
									End Site
									{
OFFSET 0 -0.590410 0.590410
									}
								}
							}
						}
					}
				}
			}
		}
	}
}
MOTION
Frames: 11
Frame Time: 0.008333333333333333
26.274700 15.976200 -1.686000 6.251000 -70.877600 2.216600 0.000000 0.000000 0.000000 -20.136900 -15.388900 -17.603100 3.105400 10.863800 31.821900 1.014300 -13.077900 -18.917400 1.710000 -8.233800 -23.426600 0.000000 0.000000 0.000000 18.090500 -0.373000 -13.556300 -1.597900 -7.972700 22.631300 -1.994900 -14.018800 -34.766000 -0.010200 0.651200 -1.789600 -2.381000 4.952000 -6.802300 0.010400 6.607500 -4.935700 1.667100 3.328400 -1.578200 -5.812500 7.840500 -5.278000 7.990200 10.354600 8.212000 4.059800 5.281300 2.838600 -0.000000 -0.000000 0.000000 -8.716900 8.279600 7.677000 19.737000 -30.324200 5.397900 -26.120600 40.642400 -14.306000 0.000000 0.000000 0.000000 -7.125000 0.000000 0.000000 -44.315600 39.787400 -7.517000 -0.000000 -0.000000 0.000000 6.171200 3.079900 -1.881000 -15.358500 -24.643100 -3.374000 11.397500 11.594200 -44.821700 0.000000 0.000000 0.000000 7.125000 0.000000 -0.000000 23.398400 -12.284100 30.158800
26.236466 15.961275 -1.738123 6.011491 -72.232303 0.932337 0.000000 0.000000 0.000000 -20.083779 -13.667305 -15.804104 3.059778 10.791165 31.578782 1.056617 -13.266711 -19.291050 1.474956 -7.674014 -21.728193 0.000000 0.000000 0.000000 18.509782 -0.311306 -11.458621 -1.521194 -7.788018 22.072045 -1.964944 -13.696886 -34.347194 -0.023796 0.980396 -2.694977 -2.593779 5.108120 -5.380317 -0.611552 6.768408 -5.406233 0.987784 3.416533 -2.810607 -7.281748 1.866400 -1.197040 9.093431 2.300066 4.449199 4.363801 1.180091 1.452254 0.000000 0.000000 0.000000 -7.466150 11.222084 3.225252 19.975671 -30.613017 5.518963 -1.475373 32.185978 -37.779876 0.000000 0.000000 0.000000 -7.125000 0.000000 0.000000 -43.281321 62.377585 20.269009 0.000000 0.000000 0.000000 7.731332 3.060648 -1.220018 -15.332328 -24.607020 -3.363091 12.205900 12.510920 -44.517728 0.000000 0.000000 0.000000 7.125000 0.000000 0.000000 23.753957 -11.990664 30.609207
26.212026 15.944587 -1.772430 6.346041 -73.045764 -0.960297 0.000000 0.000000 0.000000 -20.338215 -12.141572 -14.248144 3.049088 10.774180 31.521933 1.082816 -13.349823 -19.510914 1.571371 -7.909547 -22.439662 0.000000 0.000000 0.000000 18.689272 -0.820870 -9.610013 -1.468429 -7.657772 21.679319 -1.863935 -13.733655 -33.805047 -0.108414 2.123156 -5.846196 -2.577120 4.619504 -3.837682 -1.169317 6.056773 -5.574038 0.250527 3.054408 -3.753979 -9.187979 -2.627827 2.739071 12.002128 -3.923066 1.610281 5.119359 -2.045816 0.439568 0.000000 0.000000 0.000000 -6.898914 13.230064 0.115220 20.265847 -30.961230 5.667487 16.151475 29.988917 -40.081316 0.000000 0.000000 0.000000 -7.125000 0.000000 0.000000 -28.394301 69.266498 16.978393 0.000000 0.000000 0.000000 9.141364 2.854517 0.263320 -15.371144 -24.660563 -3.379253 12.422857 12.825271 -44.026099 0.000000 0.000000 0.000000 7.125000 0.000000 0.000000 23.853005 -11.528262 30.616283
26.196012 15.943531 -1.782118 6.858803 -74.637371 -1.684990 0.000000 0.000000 0.000000 -20.416274 -11.453067 -13.954338 3.048390 10.773015 31.518217 1.203058 -12.342373 -20.176816 1.605313 -7.990273 -22.684560 0.000000 0.000000 0.000000 18.646406 -0.564545 -9.549455 -1.480732 -7.688529 21.771938 -1.846373 -13.013136 -33.137334 -0.155401 2.539787 -6.999983 -2.613152 4.307199 -3.668534 -1.461643 5.616646 -5.678053 -0.046850 2.827180 -3.919349 -11.734332 -5.252229 4.192827 15.287629 -7.697910 0.655989 6.556183 -4.025508 0.559604 0.000000 0.000000 0.000000 -7.065493 13.651850 -0.230824 19.965015 -30.600104 5.513612 31.187896 33.593863 -38.833028 0.000000 0.000000 0.000000 -7.125000 0.000000 0.000000 -6.436295 73.156500 4.241719 0.000000 0.000000 0.000000 9.969122 2.703829 1.909190 -15.730434 -25.153755 -3.530630 12.104147 11.571018 -43.976255 0.000000 0.000000 0.000000 7.125000 0.000000 0.000000 23.712801 -11.483377 30.389341
26.182125 15.936342 -1.787308 7.230373 -75.898827 -2.367181 0.000000 0.000000 0.000000 -20.457936 -11.220042 -13.383549 3.045423 10.768178 31.502093 1.316257 -11.415511 -20.845947 1.583212 -7.937731 -22.525259 0.000000 0.000000 0.000000 18.635093 -0.588800 -9.499583 -1.513230 -7.768456 22.013086 -1.868634 -12.079532 -32.554320 -0.166948 2.632024 -7.255943 -2.470852 3.613898 -3.396405 -1.476147 4.679960 -5.645102 -0.153524 2.352616 -4.002791 -13.045583 -6.325407 4.279300 16.738999 -9.299865 0.769139 7.181930 -4.847270 0.931975 0.000000 0.000000 0.000000 -7.529063 13.414844 2.979357 19.709794 -30.291148 5.384176 23.592766 31.202153 -36.472155 0.000000 0.000000 0.000000 -7.125000 0.000000 0.000000 -14.531799 68.354117 8.209627 0.000000 0.000000 0.000000 10.310315 2.746560 3.241456 -15.765382 -25.201565 -3.545464 12.487758 11.729408 -44.475857 0.000000 0.000000 0.000000 7.125000 0.000000 0.000000 23.877774 -11.949640 30.785412
26.178994 15.937006 -1.796306 8.758978 -77.953685 -3.384010 0.000000 0.000000 0.000000 -20.506123 -10.561497 -13.898129 3.049181 10.774268 31.522280 1.431661 -10.389224 -21.555672 1.586508 -7.945726 -22.549273 0.000000 0.000000 0.000000 18.419522 0.451076 -10.294345 -1.568987 -7.903761 22.422206 -1.839678 -11.187872 -31.720141 -0.182676 2.752740 -7.591179 -2.895030 3.532613 -3.865534 -1.474032 4.569424 -5.873586 0.104149 2.309600 -4.013267 -13.268476 -6.900672 4.503943 16.986922 -10.162548 0.946727 7.267238 -5.290654 1.102734 0.000000 0.000000 0.000000 -7.765168 13.316802 2.125234 19.809717 -30.412403 5.434670 23.635789 32.391830 -37.724053 0.000000 0.000000 0.000000 -7.125000 0.000000 0.000000 -15.945530 69.555222 9.455402 0.000000 0.000000 0.000000 10.420723 2.983832 2.168380 -15.390277 -24.686701 -3.387443 12.129083 12.303800 -44.331488 0.000000 0.000000 0.000000 7.125000 0.000000 0.000000 23.721245 -11.816488 30.505938
26.177640 15.933275 -1.784562 9.292845 -79.483149 -3.935386 0.000000 0.000000 0.000000 -20.534173 -10.269866 -13.810738 3.065096 10.799693 31.607272 1.527805 -9.382855 -22.167937 1.564686 -7.893561 -22.391188 0.000000 0.000000 0.000000 18.361979 1.100734 -10.365221 -1.577919 -7.925114 22.486929 -1.833819 -10.469738 -31.167597 -0.169722 2.654035 -7.317018 -2.846571 3.381632 -4.079461 -1.360236 4.380594 -5.769665 0.213530 2.213556 -3.784135 -12.751185 -7.094502 4.111135 16.337341 -10.392564 1.388568 6.940007 -5.376758 1.268991 0.000000 0.000000 0.000000 -8.294859 12.777316 0.189850 20.059015 -30.713360 5.561444 24.935509 35.393627 -39.567671 0.000000 0.000000 0.000000 -7.125000 0.000000 0.000000 -16.721762 71.705147 10.717155 0.000000 0.000000 0.000000 10.184989 2.995573 -0.849070 -14.494279 -23.436796 -3.021896 12.831465 15.175632 -44.654648 0.000000 0.000000 0.000000 7.125000 0.000000 0.000000 24.026574 -12.115986 31.064499
26.186374 15.935877 -1.779351 9.476015 -80.821313 -4.152132 0.000000 0.000000 0.000000 -20.389375 -9.525216 -13.841847 3.050865 10.776968 31.531279 1.573285 -8.979508 -22.475530 1.573416 -7.914492 -22.454601 0.000000 0.000000 0.000000 18.476249 1.463772 -10.560272 -1.590234 -7.954577 22.576271 -1.774658 -10.090301 -30.528612 -0.290741 3.467082 -9.581966 -2.636533 3.201198 -3.695570 -1.261420 4.119678 -5.907042 0.169661 2.078640 -4.127668 -12.145777 -6.963965 4.016530 15.544067 -10.149304 1.408572 6.598803 -5.243143 1.181529 0.000000 0.000000 0.000000 -8.554178 12.263531 -1.601152 20.412842 -31.136495 5.743266 25.166851 34.348723 -39.786674 0.000000 0.000000 0.000000 -7.125000 0.000000 0.000000 -16.736335 71.986441 10.829806 0.000000 0.000000 0.000000 9.828458 3.683109 -4.491160 -13.547854 -22.084440 -2.655965 12.233173 17.605376 -44.809633 0.000000 0.000000 0.000000 7.125000 0.000000 0.000000 23.764376 -12.264184 30.708844
26.207562 15.936263 -1.778744 11.276749 -81.939962 -5.896643 0.000000 0.000000 0.000000 -20.485226 -8.956283 -13.951286 3.030093 10.743554 31.419910 1.602458 -8.550429 -22.670437 1.526569 -7.801118 -22.111504 0.000000 0.000000 0.000000 18.303496 2.149883 -10.797301 -1.628334 -8.044847 22.850359 -1.776544 -9.654449 -30.236291 -0.269179 3.336451 -9.217042 -2.787297 3.011180 -3.248924 -1.190076 3.851332 -5.968176 0.299198 1.954523 -4.452845 -11.570083 -6.859543 3.452141 14.673483 -9.923972 1.698054 6.213617 -5.096733 1.253961 0.000000 0.000000 0.000000 -8.679425 11.858828 -4.579297 21.140492 -31.991956 6.124270 24.849663 34.150438 -44.568237 0.000000 0.000000 0.000000 -7.125000 0.000000 0.000000 -26.833708 76.026925 19.887692 0.000000 0.000000 0.000000 9.251634 4.677528 -7.642744 -12.949871 -21.213743 -2.435139 12.573655 19.901400 -44.022601 0.000000 0.000000 0.000000 7.125000 0.000000 0.000000 23.919747 -11.524407 30.716288
26.217995 15.939803 -1.766821 12.583171 -82.977363 -6.984829 0.000000 0.000000 0.000000 -20.510467 -8.783692 -14.166176 3.040210 10.759892 31.474246 1.653802 -7.920176 -23.032147 1.457305 -7.629839 -21.595319 0.000000 0.000000 0.000000 18.191620 2.636911 -11.175096 -1.639234 -8.070231 22.927570 -1.756789 -9.128352 -29.749864 -0.262541 3.293330 -9.096712 -2.536473 2.838872 -3.054255 -1.209788 3.607475 -6.056213 0.129490 1.821301 -4.629599 -11.272970 -6.571740 2.855682 14.309506 -9.495763 2.116359 6.038497 -4.854084 1.384291 0.000000 0.000000 0.000000 -8.709530 11.384493 -6.602360 21.858350 -32.816282 6.509044 27.936976 35.268805 -41.619674 0.000000 0.000000 0.000000 -7.125000 0.000000 0.000000 -15.821542 74.654984 11.136835 0.000000 0.000000 0.000000 8.778821 6.085727 -9.496531 -12.782811 -20.968138 -2.374998 13.932920 21.524669 -44.778702 0.000000 0.000000 0.000000 7.125000 0.000000 0.000000 24.503985 -12.236090 31.839118
26.235323 15.942982 -1.751884 13.710471 -82.998399 -7.721857 0.000000 0.000000 0.000000 -20.655806 -9.172873 -14.629594 3.056660 10.786214 31.562309 1.654071 -7.633903 -23.037260 1.476969 -7.679079 -21.743595 0.000000 0.000000 0.000000 17.976952 2.617281 -11.788934 -1.652810 -8.102013 23.024379 -1.722674 -9.139701 -29.535379 -0.348465 3.793013 -10.495074 -2.473070 2.414024 -2.954379 -1.193764 3.031055 -6.148823 0.111736 1.530818 -4.766744 -11.163638 -6.167161 2.506895 14.109021 -8.907373 2.200107 5.967556 -4.545543 1.374976 0.000000 0.000000 0.000000 -8.843444 10.945707 -8.434461 22.398551 -33.424486 6.804055 28.788316 34.616000 -41.378233 0.000000 0.000000 0.000000 -7.125000 0.000000 0.000000 -14.092897 74.743906 9.934030 0.000000 0.000000 0.000000 8.297359 7.521588 -10.796627 -12.954344 -21.220279 -2.436732 11.186757 18.873314 -44.300790 0.000000 0.000000 0.000000 7.125000 0.000000 0.000000 23.305764 -11.798083 29.872032
